# xmcd
#
# Track frame offsets: 
#        150
#        14301
#        28122
#        56135
#        73727
#        89261
#        102046
#        116351
#        141419
#        157053
#        169562
#        184912
#        211019
#        230892
#
# Disc length: 3285 seconds
#
# Revision: 0
# Processed by: cddbd v1.5.2PL0 Copyright (c) Steve Scherf et al.
# Submitted via: ExactAudioCopyFreeDBPlugin 1.0
#
DISCID=c20cd30e
DTITLE=Jan Hirte and Nina T - Two with the blues
DYEAR=1999
DGENRE=Blues
TTITLE0=The hustle is on
TTITLE1=Mind your business
TTITLE2=St. Louis Blues 
TTITLE3=Mess around
TTITLE4=If I should lose you
TTITLE5=Bluesin'
TTITLE6=Same old Blues
TTITLE7=Standing at the corner
TTITLE8=Going upside your head
TTITLE9=Boogie some more
TTITLE10=Bad bad whisky
TTITLE11=Steppin stone
TTITLE12=Two way street
TTITLE13=Jan's special
EXTD=
EXTT0=
EXTT1=
EXTT2=
EXTT3=
EXTT4=
EXTT5=
EXTT6=
EXTT7=
EXTT8=
EXTT9=
EXTT10=
EXTT11=
EXTT12=
EXTT13=
PLAYORDER=
